<svg width="500" height="500" viewBox="0 0 500 500" fill="none" xmlns="http://www.w3.org/2000/svg">
<path d="M383.771 216.307C364.615 233.198 343.693 251.854 324.531 268.745C324.542 268.76 324.552 268.776 324.562 268.792C324.755 269.062 324.943 269.354 325.104 269.682C325.292 270 325.437 270.323 325.557 270.646C326.979 273.786 327.813 277.172 328.052 280.594C348.833 262.271 371.38 242.182 392.161 223.859C388.891 221.927 386.005 219.349 383.771 216.307Z" fill="url(#paint0_linear_2_63)"/>
<path d="M227.125 216.406C226.828 220.578 225.542 224.594 223.474 228.141C240.891 243.49 260.068 260.609 277.485 275.958C278.386 272.146 280.083 268.547 282.557 265.484C264.667 249.714 245.016 232.177 227.125 216.406Z" fill="url(#paint1_linear_2_63)"/>
<mask id="mask0_2_63" style="mask-type:luminance" maskUnits="userSpaceOnUse" x="68" y="218" width="114" height="107">
<path d="M68 218.588H181.333V324.974H68V218.588Z" fill="white"/>
</mask>
<g mask="url(#mask0_2_63)">
<path d="M111.255 276.833C106.88 273.515 101.401 271.474 95.1667 271.135C80.0209 270.318 69.0729 284.031 68.3229 297.984C67.5052 313.135 81.2136 324.083 95.1667 324.833C109.714 325.62 120.354 313.01 121.854 299.661C121.974 299.151 122.052 298.609 122.016 297.984C122.052 297.38 121.974 296.844 121.859 296.338C121.438 292.307 120.318 288.599 118.563 285.354C138.948 267.385 160.214 248.526 180.599 230.557C178.214 227.453 176.51 223.828 175.766 219.87C154.557 238.562 132.464 258.14 111.255 276.833ZM79.5573 297.984C78.474 277.849 109.698 277.953 110.776 297.984C109.698 318.104 80.6459 318.104 79.5573 297.984Z" fill="url(#paint2_linear_2_63)"/>
</g>
<path d="M227.88 212.219C227.849 212.01 227.818 211.802 227.776 211.599C227.761 211.313 227.734 211.026 227.677 210.724C225.136 197.214 212.625 187.698 198.927 188.849C184.995 190.016 174.854 201.885 174.469 215.563C174.422 217.344 174.573 219.073 174.886 220.745C175.63 224.708 177.333 228.333 179.719 231.438C185.005 238.313 193.636 242.641 202.604 242.375C211.953 242.094 219.932 236.63 224.359 229.021C226.427 225.474 227.714 221.464 228.011 217.292C228.125 215.615 228.094 213.922 227.88 212.219ZM202.604 231.135C193.302 231.969 186.162 224.474 185.708 215.563C185.302 207.542 191.922 201.5 199.255 200.052C207.849 198.354 214.969 205.354 216.714 213.115C217.432 222.016 212.063 230.286 202.604 231.135Z" fill="url(#paint3_linear_2_63)"/>
<path d="M325.99 268.797C325.823 268.469 325.641 268.177 325.443 267.911C325.432 267.891 325.427 267.875 325.417 267.859C317.615 255.542 302.13 251.578 289.172 258.427C286.172 260.01 283.672 262.13 281.677 264.599C279.203 267.661 277.505 271.266 276.599 275.078C274.984 281.896 275.906 289.391 279.484 295.625C286.578 307.989 302.162 311.323 314.568 305.708C324.88 301.042 329.693 290.239 328.938 279.708C328.698 276.292 327.865 272.901 326.443 269.76C326.323 269.443 326.177 269.12 325.99 268.797ZM309.922 295.469C303.25 299.422 294.24 297.021 289.802 290.901C284.656 283.802 286.609 273.797 293.708 268.823C301.49 263.37 311.734 266.646 316.281 274.469C320.177 282.255 317.276 291.104 309.922 295.469Z" fill="url(#paint4_linear_2_63)"/>
<mask id="mask1_2_63" style="mask-type:luminance" maskUnits="userSpaceOnUse" x="377" y="175" width="55" height="55">
<path d="M377.333 175H431.938V229.255H377.333V175Z" fill="white"/>
</mask>
<g mask="url(#mask1_2_63)">
<path d="M431.688 200.62C431.292 186.516 419.391 175.859 405.802 175.026C405.51 174.99 405.203 174.969 404.875 174.979C404.552 174.969 404.25 174.99 403.953 175.026C389.839 175.854 379.24 186.516 378.057 200.625C377.537 206.792 379.458 212.531 382.885 217.188C385.12 220.229 388.005 222.807 391.281 224.74C396.042 227.557 401.63 229.016 407.266 228.542C421.552 227.344 432.083 214.74 431.688 200.62ZM406.943 217.339C396.938 219.318 389.042 209.807 389.297 200.625C389.526 192.406 397.12 186.432 404.875 186.219C412.979 186.443 419.76 192.411 420.448 200.625C421.167 209.13 414.943 215.76 406.943 217.339Z" fill="url(#paint5_linear_2_63)"/>
</g>
<defs>
<linearGradient id="paint0_linear_2_63" x1="358.346" y1="216.307" x2="358.346" y2="280.594" gradientUnits="userSpaceOnUse">
<stop stop-color="#F5AEFF"/>
<stop offset="1" stop-color="#523656"/>
</linearGradient>
<linearGradient id="paint1_linear_2_63" x1="253.016" y1="216.406" x2="253.016" y2="275.958" gradientUnits="userSpaceOnUse">
<stop stop-color="#F5AEFF"/>
<stop offset="1" stop-color="#523656"/>
</linearGradient>
<linearGradient id="paint2_linear_2_63" x1="124.444" y1="219.87" x2="124.444" y2="324.868" gradientUnits="userSpaceOnUse">
<stop stop-color="#F5AEFF"/>
<stop offset="1" stop-color="#523656"/>
</linearGradient>
<linearGradient id="paint3_linear_2_63" x1="201.268" y1="188.755" x2="201.268" y2="242.387" gradientUnits="userSpaceOnUse">
<stop stop-color="#F5AEFF"/>
<stop offset="1" stop-color="#523656"/>
</linearGradient>
<linearGradient id="paint4_linear_2_63" x1="302.423" y1="255.091" x2="302.423" y2="308.348" gradientUnits="userSpaceOnUse">
<stop stop-color="#F5AEFF"/>
<stop offset="1" stop-color="#523656"/>
</linearGradient>
<linearGradient id="paint5_linear_2_63" x1="404.836" y1="174.976" x2="404.836" y2="228.63" gradientUnits="userSpaceOnUse">
<stop stop-color="#F5AEFF"/>
<stop offset="1" stop-color="#523656"/>
</linearGradient>
</defs>
</svg>
